<svg width="61" height="35" viewBox="0 0 61 35" fill="none" xmlns="http://www.w3.org/2000/svg">
<mask id="path-1-outside-1_59_71" maskUnits="userSpaceOnUse" x="0.583374" y="0.069458" width="60" height="35" fill="black">
<rect fill="white" x="0.583374" y="0.069458" width="60" height="35"/>
<path d="M36.0834 0.703455L34.5994 7.27545C35.73 7.84079 36.9314 9.07745 38.2034 10.9855C39.4047 12.8935 40.1114 14.9781 40.3234 17.2395L33.1154 18.4055L33.1154 34.6235L59.9334 34.6235L59.9334 24.7655C59.9334 18.2641 58.0607 12.8581 54.3154 8.54746C50.4994 4.23679 44.422 1.62212 36.0834 0.703455ZM3.96537 0.703455L2.48137 7.27545C3.61204 7.84079 4.81337 9.07745 6.08537 10.9855C7.2867 12.8935 7.99337 14.9781 8.20537 17.2395L0.997371 18.4055L0.997371 34.6235L27.8154 34.6235L27.8154 24.7655C27.8154 18.2641 25.9427 12.8581 22.1974 8.54746C18.3814 4.23679 12.304 1.62212 3.96537 0.703455Z"/>
</mask>
<path d="M36.0834 0.703455L35.7244 0.622387L35.7968 0.3016L36.1237 0.337614L36.0834 0.703455ZM34.5994 7.27545L34.4348 7.60465L34.1768 7.47568L34.2404 7.19439L34.5994 7.27545ZM38.2034 10.9855L38.5097 10.7812L38.5148 10.7894L38.2034 10.9855ZM40.3234 17.2395L40.6898 17.2051L40.722 17.5478L40.3821 17.6028L40.3234 17.2395ZM33.1154 18.4055H32.7473V18.0922L33.0566 18.0421L33.1154 18.4055ZM33.1154 34.6235V34.9915H32.7473V34.6235H33.1154ZM59.9334 34.6235H60.3014V34.9915H59.9334V34.6235ZM54.3154 8.54745L54.591 8.30348L54.5932 8.30606L54.3154 8.54745ZM3.96537 0.703455L3.60635 0.622387L3.67879 0.3016L4.00568 0.337614L3.96537 0.703455ZM2.48137 7.27545L2.31677 7.60465L2.05883 7.47568L2.12235 7.19439L2.48137 7.27545ZM6.08537 10.9855L6.39171 10.7812L6.39683 10.7894L6.08537 10.9855ZM8.20537 17.2395L8.57182 17.2051L8.60395 17.5478L8.26415 17.6028L8.20537 17.2395ZM0.997372 18.4055H0.629314V18.0922L0.938595 18.0421L0.997372 18.4055ZM0.997372 34.6235V34.9915H0.629314V34.6235H0.997372ZM27.8154 34.6235H28.1834V34.9915H27.8154V34.6235ZM22.1974 8.54745L22.473 8.30348L22.4752 8.30606L22.1974 8.54745ZM36.4424 0.784523L34.9584 7.35652L34.2404 7.19439L35.7244 0.622387L36.4424 0.784523ZM34.764 6.94625C35.9817 7.55511 37.2268 8.85703 38.5096 10.7813L37.8971 11.1896C36.636 9.29788 35.4784 8.12646 34.4348 7.60465L34.764 6.94625ZM38.5148 10.7894C39.7472 12.7466 40.4725 14.8867 40.6898 17.2051L39.9569 17.2738C39.7503 15.0695 39.0622 13.0403 37.8919 11.1816L38.5148 10.7894ZM40.3821 17.6028L33.1741 18.7688L33.0566 18.0421L40.2646 16.8761L40.3821 17.6028ZM33.4834 18.4055L33.4834 34.6235H32.7473L32.7473 18.4055H33.4834ZM33.1154 34.2554L59.9334 34.2554V34.9915L33.1154 34.9915V34.2554ZM59.5653 34.6235L59.5653 24.7655H60.3014L60.3014 34.6235H59.5653ZM59.5653 24.7655C59.5653 18.3397 57.7166 13.0233 54.0375 8.78885L54.5932 8.30606C58.4048 12.6929 60.3014 18.1885 60.3014 24.7655H59.5653ZM54.0398 8.79142C50.307 4.57476 44.3318 1.98247 36.0431 1.0693L36.1237 0.337614C44.5123 1.26178 50.6917 3.89882 54.591 8.30349L54.0398 8.79142ZM4.32439 0.784523L2.84039 7.35652L2.12235 7.19439L3.60635 0.622387L4.32439 0.784523ZM2.64597 6.94625C3.86369 7.55511 5.10877 8.85703 6.39161 10.7813L5.77913 11.1896C4.51797 9.29788 3.36039 8.12646 2.31677 7.60465L2.64597 6.94625ZM6.39683 10.7894C7.62916 12.7466 8.35447 14.8867 8.57182 17.2051L7.83892 17.2738C7.63227 15.0695 6.94425 13.0403 5.77391 11.1816L6.39683 10.7894ZM8.26415 17.6028L1.05614 18.7688L0.938595 18.0421L8.1466 16.8761L8.26415 17.6028ZM1.36543 18.4055L1.36543 34.6235H0.629314L0.629314 18.4055H1.36543ZM0.997372 34.2554L27.8154 34.2554V34.9915L0.997372 34.9915V34.2554ZM27.4473 34.6235L27.4473 24.7655H28.1834L28.1834 34.6235H27.4473ZM27.4473 24.7655C27.4473 18.3397 25.5986 13.0233 21.9195 8.78885L22.4752 8.30606C26.2868 12.6929 28.1834 18.1885 28.1834 24.7655H27.4473ZM21.9218 8.79142C18.189 4.57476 12.2138 1.98247 3.92506 1.0693L4.00568 0.337614C12.3943 1.26178 18.5737 3.89882 22.473 8.30349L21.9218 8.79142Z" fill="#FF9142" mask="url(#path-1-outside-1_59_71)"/>
</svg>
